<?xml version="1.0" encoding="UTF-8"?>
<svg xmlns="http://www.w3.org/2000/svg" xmlns:xlink="http://www.w3.org/1999/xlink" width="32px" height="32px" viewBox="0 0 32 32" version="1.1">
<g id="surface1">
<path style=" stroke:none;fill-rule:nonzero;fill:rgb(45.490196%,85.882354%,78.823531%);fill-opacity:1;" d="M 29.332031 0.53125 L 12.265625 0.53125 C 10.796875 0.53125 9.601562 1.730469 9.601562 3.199219 L 9.601562 13.867188 C 9.601562 15.335938 10.796875 16.535156 12.265625 16.535156 L 20.605469 16.535156 L 26.859375 21.742188 C 27.199219 22.027344 27.734375 21.773438 27.734375 21.332031 L 27.734375 16.535156 L 29.332031 16.535156 C 30.804688 16.535156 32 15.335938 32 13.867188 L 32 3.199219 C 32 1.730469 30.804688 0.53125 29.332031 0.53125 Z M 29.332031 0.53125 "/>
<path style=" stroke:none;fill-rule:nonzero;fill:rgb(41.568628%,78.431374%,71.764708%);fill-opacity:1;" d="M 11.199219 13.867188 L 11.199219 3.199219 C 11.199219 1.730469 12.394531 0.53125 13.867188 0.53125 L 12.265625 0.53125 C 10.796875 0.53125 9.601562 1.730469 9.601562 3.199219 L 9.601562 13.867188 C 9.601562 15.335938 10.796875 16.535156 12.265625 16.535156 L 13.867188 16.535156 C 12.394531 16.53125 11.199219 15.335938 11.199219 13.867188 Z M 11.199219 13.867188 "/>
<path style=" stroke:none;fill-rule:nonzero;fill:rgb(41.568628%,78.431374%,71.764708%);fill-opacity:1;" d="M 22.207031 16.53125 L 20.605469 16.53125 L 26.859375 21.742188 C 27.199219 22.027344 27.734375 21.773438 27.734375 21.332031 L 27.734375 21.136719 Z M 22.207031 16.53125 "/>
<path style=" stroke:none;fill-rule:nonzero;fill:rgb(100%,100%,100%);fill-opacity:1;" d="M 27.199219 5.332031 L 22.398438 5.332031 C 22.105469 5.332031 21.867188 5.09375 21.867188 4.800781 C 21.867188 4.503906 22.105469 4.265625 22.398438 4.265625 L 27.199219 4.265625 C 27.496094 4.265625 27.734375 4.503906 27.734375 4.800781 C 27.734375 5.09375 27.496094 5.332031 27.199219 5.332031 Z M 27.199219 5.332031 "/>
<path style=" stroke:none;fill-rule:nonzero;fill:rgb(100%,100%,100%);fill-opacity:1;" d="M 22.933594 9.601562 L 14.398438 9.601562 C 14.105469 9.601562 13.867188 9.359375 13.867188 9.066406 C 13.867188 8.773438 14.105469 8.535156 14.398438 8.535156 L 22.933594 8.535156 C 23.226562 8.535156 23.464844 8.773438 23.464844 9.066406 C 23.464844 9.359375 23.226562 9.601562 22.933594 9.601562 Z M 22.933594 9.601562 "/>
<path style=" stroke:none;fill-rule:nonzero;fill:rgb(100%,100%,100%);fill-opacity:1;" d="M 25.066406 13.867188 L 14.398438 13.867188 C 14.105469 13.867188 13.867188 13.628906 13.867188 13.332031 C 13.867188 13.039062 14.105469 12.800781 14.398438 12.800781 L 25.066406 12.800781 C 25.359375 12.800781 25.601562 13.039062 25.601562 13.332031 C 25.601562 13.628906 25.359375 13.867188 25.066406 13.867188 Z M 25.066406 13.867188 "/>
<path style=" stroke:none;fill-rule:nonzero;fill:rgb(100%,100%,100%);fill-opacity:1;" d="M 27.199219 9.601562 L 24.535156 9.601562 C 24.238281 9.601562 24 9.359375 24 9.066406 C 24 8.773438 24.238281 8.535156 24.535156 8.535156 L 27.199219 8.535156 C 27.496094 8.535156 27.734375 8.773438 27.734375 9.066406 C 27.734375 9.359375 27.496094 9.601562 27.199219 9.601562 Z M 27.199219 9.601562 "/>
<path style=" stroke:none;fill-rule:nonzero;fill:rgb(76.47059%,76.862746%,77.64706%);fill-opacity:1;" d="M 19.734375 4.265625 L 2.667969 4.265625 C 1.195312 4.265625 0 5.460938 0 6.933594 L 0 17.601562 C 0 19.070312 1.195312 20.265625 2.667969 20.265625 L 3.734375 20.265625 L 3.734375 25.066406 C 3.734375 25.507812 4.265625 25.761719 4.609375 25.476562 L 10.859375 20.265625 L 19.734375 20.265625 C 21.203125 20.265625 22.398438 19.070312 22.398438 17.601562 L 22.398438 6.933594 C 22.398438 5.460938 21.203125 4.265625 19.734375 4.265625 Z M 19.734375 4.265625 "/>
<path style=" stroke:none;fill-rule:nonzero;fill:rgb(68.627453%,69.01961%,70.588237%);fill-opacity:1;" d="M 5.332031 20.265625 L 4.265625 20.265625 C 2.796875 20.265625 1.601562 19.070312 1.601562 17.601562 L 1.601562 6.933594 C 1.601562 5.460938 2.796875 4.265625 4.265625 4.265625 L 2.667969 4.265625 C 1.195312 4.265625 0 5.460938 0 6.933594 L 0 17.601562 C 0 19.070312 1.195312 20.265625 2.667969 20.265625 L 3.734375 20.265625 L 3.734375 25.066406 C 3.734375 25.507812 4.265625 25.761719 4.609375 25.476562 L 5.332031 24.871094 Z M 5.332031 20.265625 "/>
<path style=" stroke:none;fill-rule:nonzero;fill:rgb(100%,100%,100%);fill-opacity:1;" d="M 8 12.265625 C 8 11.382812 7.285156 10.667969 6.398438 10.667969 C 5.515625 10.667969 4.800781 11.382812 4.800781 12.265625 C 4.800781 13.148438 5.515625 13.867188 6.398438 13.867188 C 7.285156 13.867188 8 13.148438 8 12.265625 Z M 8 12.265625 "/>
<path style=" stroke:none;fill-rule:nonzero;fill:rgb(100%,100%,100%);fill-opacity:1;" d="M 12.800781 12.265625 C 12.800781 11.382812 12.082031 10.667969 11.199219 10.667969 C 10.316406 10.667969 9.601562 11.382812 9.601562 12.265625 C 9.601562 13.148438 10.316406 13.867188 11.199219 13.867188 C 12.082031 13.867188 12.800781 13.148438 12.800781 12.265625 Z M 12.800781 12.265625 "/>
<path style=" stroke:none;fill-rule:nonzero;fill:rgb(100%,100%,100%);fill-opacity:1;" d="M 17.601562 12.265625 C 17.601562 11.382812 16.882812 10.667969 16 10.667969 C 15.117188 10.667969 14.398438 11.382812 14.398438 12.265625 C 14.398438 13.148438 15.117188 13.867188 16 13.867188 C 16.882812 13.867188 17.601562 13.148438 17.601562 12.265625 Z M 17.601562 12.265625 "/>
<path style=" stroke:none;fill-rule:nonzero;fill:rgb(94.117647%,48.235294%,32.156864%);fill-opacity:1;" d="M 11.464844 29.867188 L 8.535156 29.867188 L 8.535156 25.332031 C 8.535156 24.890625 8.175781 24.535156 7.734375 24.535156 C 7.292969 24.535156 6.933594 24.890625 6.933594 25.332031 L 6.933594 30.667969 C 6.933594 31.109375 7.292969 31.46875 7.734375 31.46875 L 11.464844 31.46875 C 11.910156 31.46875 12.265625 31.109375 12.265625 30.667969 C 12.265625 30.226562 11.910156 29.867188 11.464844 29.867188 Z M 11.464844 29.867188 "/>
<path style=" stroke:none;fill-rule:nonzero;fill:rgb(94.117647%,48.235294%,32.156864%);fill-opacity:1;" d="M 14.398438 24.535156 C 13.957031 24.535156 13.601562 24.890625 13.601562 25.332031 L 13.601562 30.667969 C 13.601562 31.109375 13.957031 31.464844 14.398438 31.464844 C 14.84375 31.464844 15.199219 31.109375 15.199219 30.667969 L 15.199219 25.332031 C 15.199219 24.890625 14.84375 24.535156 14.398438 24.535156 Z M 14.398438 24.535156 "/>
<path style=" stroke:none;fill-rule:nonzero;fill:rgb(94.117647%,48.235294%,32.156864%);fill-opacity:1;" d="M 22.164062 24.589844 C 21.753906 24.425781 21.289062 24.625 21.125 25.035156 L 19.734375 28.511719 L 18.34375 25.035156 C 18.21875 24.730469 17.910156 24.523438 17.578125 24.535156 C 17.246094 24.542969 16.945312 24.765625 16.839844 25.085938 C 16.78125 25.261719 16.789062 25.457031 16.855469 25.628906 L 18.992188 30.964844 C 19.109375 31.265625 19.410156 31.46875 19.734375 31.46875 C 20.058594 31.46875 20.355469 31.265625 20.476562 30.964844 L 22.609375 25.628906 C 22.773438 25.21875 22.574219 24.753906 22.164062 24.589844 Z M 22.164062 24.589844 "/>
<path style=" stroke:none;fill-rule:nonzero;fill:rgb(94.117647%,48.235294%,32.156864%);fill-opacity:1;" d="M 28 29.867188 L 25.601562 29.867188 L 25.601562 28.800781 L 26.933594 28.800781 C 27.375 28.800781 27.734375 28.441406 27.734375 28 C 27.734375 27.558594 27.375 27.199219 26.933594 27.199219 L 25.601562 27.199219 L 25.601562 26.132812 L 28 26.132812 C 28.441406 26.132812 28.800781 25.773438 28.800781 25.332031 C 28.800781 24.890625 28.441406 24.535156 28 24.535156 L 24.800781 24.535156 C 24.359375 24.535156 24 24.890625 24 25.332031 L 24 30.667969 C 24 31.109375 24.359375 31.464844 24.800781 31.464844 L 28 31.464844 C 28.441406 31.464844 28.800781 31.109375 28.800781 30.667969 C 28.800781 30.226562 28.441406 29.867188 28 29.867188 Z M 28 29.867188 "/>
</g>
</svg>
